<?xml version="1.0" encoding="UTF-8" standalone="no"?>
<!-- Created with Inkscape (http://www.inkscape.org/) -->

<svg
   xmlns:dc="http://purl.org/dc/elements/1.1/"
   xmlns:cc="http://creativecommons.org/ns#"
   xmlns:rdf="http://www.w3.org/1999/02/22-rdf-syntax-ns#"
   xmlns:svg="http://www.w3.org/2000/svg"
   xmlns="http://www.w3.org/2000/svg"
   xmlns:sodipodi="http://sodipodi.sourceforge.net/DTD/sodipodi-0.dtd"
   xmlns:inkscape="http://www.inkscape.org/namespaces/inkscape"
   width="114.22995mm"
   height="32.680737mm"
   viewBox="0 0 404.75179 115.79788"
   id="svg18724"
   version="1.1"
   inkscape:version="0.91 r13725"
   sodipodi:docname="logo-bn.svg">
  <defs
     id="defs18726" />
  <sodipodi:namedview
     id="base"
     pagecolor="#ffffff"
     bordercolor="#666666"
     borderopacity="1.0"
     inkscape:pageopacity="0.0"
     inkscape:pageshadow="2"
     inkscape:zoom="0.35"
     inkscape:cx="367.37598"
     inkscape:cy="-368.67851"
     inkscape:document-units="px"
     inkscape:current-layer="layer1"
     showgrid="false"
     fit-margin-top="0"
     fit-margin-left="0"
     fit-margin-right="0"
     fit-margin-bottom="0"
     inkscape:window-width="1867"
     inkscape:window-height="1056"
     inkscape:window-x="53"
     inkscape:window-y="24"
     inkscape:window-maximized="1" />
  <metadata
     id="metadata18729">
    <rdf:RDF>
      <cc:Work
         rdf:about="">
        <dc:format>image/svg+xml</dc:format>
        <dc:type
           rdf:resource="http://purl.org/dc/dcmitype/StillImage" />
        <dc:title></dc:title>
      </cc:Work>
    </rdf:RDF>
  </metadata>
  <g
     inkscape:label="Capa 1"
     inkscape:groupmode="layer"
     id="layer1"
     transform="translate(645.23312,-47.885811)">
    <g
       transform="matrix(2.5450085,0,0,2.5450085,3362.7417,-5494.6337)"
       id="g7486">
      <path
         style="fill:#504c4b"
         inkscape:connector-curvature="0"
         id="path7488"
         d="m -1531.7,2188.7 c -0.1,-0.2 0,-0.4 0.3,-0.4 l 2.1,0 c 0.1,0 0.2,0.1 0.3,0.2 l 2.6,5.9 0.1,0 2.7,-5.9 c 0,-0.1 0.1,-0.2 0.3,-0.2 l 2.1,0 c 0.2,0 0.4,0.2 0.3,0.4 l -5.1,10.8 c 0,0.1 -0.1,0.2 -0.3,0.2 l -0.2,0 c -0.1,0 -0.2,-0.1 -0.3,-0.2 l -4.9,-10.8 z" />
      <path
         style="fill:#504c4b"
         inkscape:connector-curvature="0"
         id="path7490"
         d="m -1519.9,2188.6 c 0,-0.2 0.1,-0.3 0.3,-0.3 l 1.9,0 c 0.2,0 0.3,0.1 0.3,0.3 l 0,10.6 c 0,0.2 -0.1,0.3 -0.3,0.3 l -1.9,0 c -0.2,0 -0.3,-0.1 -0.3,-0.3 l 0,-10.6 z" />
      <path
         style="fill:#504c4b"
         inkscape:connector-curvature="0"
         id="path7492"
         d="m -1516.3,2188.7 c -0.1,-0.2 0,-0.4 0.3,-0.4 l 2.1,0 c 0.1,0 0.2,0.1 0.3,0.2 l 2.7,5.9 0.1,0 2.7,-5.9 c 0,-0.1 0.1,-0.2 0.3,-0.2 l 2.1,0 c 0.2,0 0.4,0.2 0.3,0.4 l -5.1,10.8 c 0,0.1 -0.1,0.2 -0.3,0.2 l -0.2,0 c -0.1,0 -0.2,-0.1 -0.3,-0.2 l -5,-10.8 z" />
      <path
         style="fill:#504c4b"
         inkscape:connector-curvature="0"
         id="path7494"
         d="m -1506,2199.1 5,-10.8 c 0,-0.1 0.2,-0.2 0.3,-0.2 l 0.2,0 c 0.1,0 0.2,0.1 0.3,0.2 l 5,10.8 c 0.1,0.2 0,0.4 -0.3,0.4 l -1.8,0 c -0.3,0 -0.4,-0.1 -0.6,-0.4 l -0.6,-1.3 -4.4,0 -0.6,1.3 c -0.1,0.2 -0.3,0.4 -0.6,0.4 l -1.8,0 c -0.1,0 -0.2,-0.2 -0.1,-0.4 m 6.6,-3.4 -1.2,-2.7 0,0 -1.2,2.7 2.4,0 z" />
      <path
         style="fill:#504c4b"
         inkscape:connector-curvature="0"
         id="path7496"
         d="m -1493.1,2188.4 c 0,-0.1 0.2,-0.3 0.3,-0.3 l 0.3,0 c 0.1,0 0.2,0.1 0.3,0.2 l 3.7,7 0,0 3.7,-6.9 c 0,-0.1 0.2,-0.2 0.3,-0.2 l 0.3,0 c 0.1,0 0.3,0.1 0.3,0.3 l 1.8,10.8 c 0,0.2 -0.1,0.4 -0.3,0.4 l -1.9,0 c -0.1,0 -0.3,-0.1 -0.3,-0.3 l -0.7,-5 0,0 -2.7,5.2 c 0,0.1 -0.2,0.2 -0.3,0.2 l -0.3,0 c -0.1,0 -0.2,-0.1 -0.3,-0.2 l -2.7,-5.2 0,0 -0.7,5 c 0,0.1 -0.1,0.3 -0.3,0.3 l -1.9,0 c -0.2,0 -0.3,-0.1 -0.3,-0.4 l 1.7,-10.9 z" />
      <path
         style="fill:#504c4b"
         inkscape:connector-curvature="0"
         id="path7498"
         d="m -1475.5,2188.1 c 3.2,0 5.8,2.6 5.8,5.8 0,3.2 -2.6,5.8 -5.8,5.8 -3.2,0 -5.8,-2.6 -5.8,-5.8 0,-3.2 2.6,-5.8 5.8,-5.8 m 0,9 c 1.8,0 3.2,-1.4 3.2,-3.2 0,-1.8 -1.4,-3.2 -3.2,-3.2 -1.8,0 -3.2,1.5 -3.2,3.2 0,1.8 1.4,3.2 3.2,3.2" />
      <path
         style="fill:#504c4b"
         inkscape:connector-curvature="0"
         id="path7500"
         d="m -1468.7,2198 0.8,-1.3 c 0.1,-0.2 0.4,-0.2 0.5,-0.1 0.1,0 1.2,0.9 2.3,0.9 0.6,0 1.1,-0.4 1.1,-1 0,-0.7 -0.6,-1.2 -1.7,-1.6 -1.4,-0.5 -3.1,-1.6 -3.1,-3.6 0,-1.6 1.2,-3.2 3.7,-3.2 1.7,0 3,0.9 3.4,1.2 0.2,0.1 0.2,0.4 0.1,0.5 l -0.8,1.2 c -0.1,0.2 -0.4,0.3 -0.5,0.2 -0.1,-0.1 -1.3,-1 -2.3,-1 -0.6,0 -1,0.4 -1,0.8 0,0.6 0.5,1 1.8,1.6 1.3,0.5 3.2,1.5 3.2,3.7 0,1.7 -1.4,3.3 -3.8,3.3 -2.1,0 -3.2,-0.9 -3.6,-1.2 -0.2,-0.1 -0.3,-0.2 -0.1,-0.4" />
      <path
         style="fill:#504c4b"
         inkscape:connector-curvature="0"
         id="path7502"
         d="m -1574.8,2204.8 c -0.1,-0.2 0,-0.4 0.3,-0.4 l 0.6,0 c 0.1,0 0.2,0.1 0.3,0.2 l 4,9 0.1,0 4,-9 c 0,-0.1 0.1,-0.2 0.3,-0.2 l 0.6,0 c 0.2,0 0.4,0.2 0.3,0.4 l -4.9,10.8 c 0,0.1 -0.1,0.2 -0.3,0.2 l -0.2,0 c -0.1,0 -0.2,-0.1 -0.3,-0.2 l -4.8,-10.8 z" />
      <path
         style="fill:#504c4b"
         inkscape:connector-curvature="0"
         id="path7504"
         d="m -1562.9,2204.7 c 0,-0.2 0.1,-0.3 0.3,-0.3 l 0.6,0 c 0.2,0 0.3,0.1 0.3,0.3 l 0,10.6 c 0,0.2 -0.1,0.3 -0.3,0.3 l -0.6,0 c -0.2,0 -0.3,-0.1 -0.3,-0.3 l 0,-10.6 z" />
      <path
         style="fill:#504c4b"
         inkscape:connector-curvature="0"
         id="path7506"
         d="m -1553.7,2204.3 c 1.6,0 2.8,0.6 3.9,1.5 0.1,0.1 0.1,0.3 0,0.4 l -0.4,0.4 c -0.1,0.2 -0.3,0.1 -0.4,0 -0.8,-0.7 -2,-1.2 -3.1,-1.2 -2.5,0 -4.5,2.1 -4.5,4.6 0,2.5 1.9,4.6 4.5,4.6 1.4,0 2.2,-0.6 3.1,-1.2 0.2,-0.1 0.3,-0.1 0.4,0 l 0.5,0.4 c 0.1,0.1 0.1,0.3 0,0.4 -1.1,1.1 -2.5,1.6 -3.9,1.6 -3.2,0 -5.8,-2.6 -5.8,-5.8 -0.1,-3.2 2.4,-5.8 5.7,-5.7" />
      <path
         style="fill:#504c4b"
         inkscape:connector-curvature="0"
         id="path7508"
         d="m -1547.7,2204.7 c 0,-0.2 0.1,-0.3 0.3,-0.3 l 6.3,0 c 0.2,0 0.3,0.1 0.3,0.3 l 0,0.5 c 0,0.2 -0.1,0.3 -0.3,0.3 l -5.4,0 0,3.9 4.6,0 c 0.2,0 0.3,0.1 0.3,0.3 l 0,0.5 c 0,0.2 -0.1,0.3 -0.3,0.3 l -4.6,0 0,4.1 5.4,0 c 0.2,0 0.3,0.1 0.3,0.3 l 0,0.5 c 0,0.2 -0.1,0.3 -0.3,0.3 l -6.3,0 c -0.2,0 -0.3,-0.1 -0.3,-0.3 l 0,-10.7 z" />
      <path
         style="fill:#504c4b"
         inkscape:connector-curvature="0"
         id="path7510"
         d="m -1538.5,2204.6 c 0,-0.2 0.1,-0.3 0.3,-0.3 l 0.4,0 7.2,9 0,0 0,-8.6 c 0,-0.2 0.1,-0.3 0.3,-0.3 l 0.6,0 c 0.2,0 0.3,0.1 0.3,0.3 l 0,10.8 c 0,0.2 -0.1,0.3 -0.3,0.3 l -0.3,0 -7.4,-9.2 0,0 0,8.7 c 0,0.2 -0.1,0.3 -0.3,0.3 l -0.6,0 c -0.2,0 -0.3,-0.1 -0.3,-0.3 l 0.1,-10.7 z" />
      <path
         style="fill:#504c4b"
         inkscape:connector-curvature="0"
         id="path7512"
         d="m -1524.8,2205.5 -2.8,0 c -0.2,0 -0.3,-0.1 -0.3,-0.3 l 0,-0.5 c 0,-0.2 0.1,-0.3 0.3,-0.3 l 6.8,0 c 0.2,0 0.3,0.1 0.3,0.3 l 0,0.5 c 0,0.2 -0.1,0.3 -0.3,0.3 l -2.8,0 0,9.9 c 0,0.2 -0.1,0.3 -0.3,0.3 l -0.6,0 c -0.2,0 -0.3,-0.1 -0.3,-0.3 l 0,-9.9 z" />
      <path
         style="fill:#504c4b"
         inkscape:connector-curvature="0"
         id="path7514"
         d="m -1519,2204.7 c 0,-0.2 0.1,-0.3 0.3,-0.3 l 6.3,0 c 0.2,0 0.3,0.1 0.3,0.3 l 0,0.5 c 0,0.2 -0.1,0.3 -0.3,0.3 l -5.4,0 0,3.9 4.6,0 c 0.2,0 0.3,0.1 0.3,0.3 l 0,0.5 c 0,0.2 -0.1,0.3 -0.3,0.3 l -4.6,0 0,4.1 5.4,0 c 0.2,0 0.3,0.1 0.3,0.3 l 0,0.5 c 0,0.2 -0.1,0.3 -0.3,0.3 l -6.3,0 c -0.2,0 -0.3,-0.1 -0.3,-0.3 l 0,-10.7 z" />
      <path
         style="fill:#504c4b"
         inkscape:connector-curvature="0"
         id="path7516"
         d="m -1506.5,2204.8 c 0,-0.2 0.1,-0.3 0.3,-0.3 l 0.6,0 c 0.2,0 0.3,0.1 0.3,0.3 l 0,9.9 4.6,0 c 0.2,0 0.3,0.1 0.3,0.3 l 0,0.5 c 0,0.2 -0.1,0.3 -0.3,0.3 l -5.6,0 c -0.2,0 -0.3,-0.1 -0.3,-0.3 l 0.1,-10.7 z" />
      <path
         style="fill:#504c4b"
         inkscape:connector-curvature="0"
         id="path7518"
         d="m -1494,2204.3 c 3.2,0 5.8,2.6 5.8,5.8 0,3.2 -2.6,5.8 -5.8,5.8 -3.2,0 -5.8,-2.6 -5.8,-5.8 0,-3.2 2.6,-5.8 5.8,-5.8 m 0,10.4 c 2.6,0 4.7,-2.1 4.7,-4.6 0,-2.6 -2.1,-4.7 -4.7,-4.7 -2.6,0 -4.6,2.1 -4.7,4.7 0,2.6 2.1,4.6 4.7,4.6 m -1.5,-11.9 c -0.1,-0.1 0,-0.3 0.1,-0.3 l 2.4,-1.3 c 0.1,-0.1 0.3,-0.1 0.4,0 l 0.3,0.6 c 0.1,0.1 0,0.3 -0.1,0.3 l -2.6,1.1 c -0.2,0.1 -0.3,0.1 -0.4,0 l -0.1,-0.4 z" />
      <path
         style="fill:#504c4b"
         inkscape:connector-curvature="0"
         id="path7520"
         d="m -1486.1,2204.8 c 0,-0.2 0.1,-0.3 0.3,-0.3 l 3.6,0 c 2,0 3.6,1.6 3.6,3.6 0,2 -1.6,3.6 -3.6,3.6 l -2.7,0 0,3.8 c 0,0.2 -0.1,0.3 -0.3,0.3 l -0.6,0 c -0.2,0 -0.3,-0.1 -0.3,-0.3 l 0,-10.7 z m 3.8,5.6 c 1.3,0 2.4,-1.1 2.4,-2.5 0,-1.3 -1.1,-2.3 -2.4,-2.3 l -2.6,0 0,4.8 2.6,0 z" />
      <path
         style="fill:#504c4b"
         inkscape:connector-curvature="0"
         id="path7522"
         d="m -1476.8,2204.8 c 0,-0.2 0.1,-0.3 0.3,-0.3 l 6.3,0 c 0.2,0 0.3,0.1 0.3,0.3 l 0,0.5 c 0,0.2 -0.1,0.3 -0.3,0.3 l -5.4,0 0,3.9 4.6,0 c 0.2,0 0.3,0.1 0.3,0.3 l 0,0.5 c 0,0.2 -0.1,0.3 -0.3,0.3 l -4.6,0 0,4.1 5.4,0 c 0.2,0 0.3,0.1 0.3,0.3 l 0,0.5 c 0,0.2 -0.1,0.3 -0.3,0.3 l -6.3,0 c -0.2,0 -0.3,-0.1 -0.3,-0.3 l 0,-10.7 z" />
      <path
         style="fill:#504c4b"
         inkscape:connector-curvature="0"
         id="path7524"
         d="m -1468.8,2215.1 5.8,-9.5 0,0 -5.1,0 c -0.2,0 -0.3,-0.1 -0.3,-0.3 l 0,-0.5 c 0,-0.2 0.1,-0.3 0.3,-0.3 l 6.5,0 c 0.2,0 0.3,0.1 0.3,0.3 l 0,0.2 -5.9,9.6 0,0 5.3,0 c 0.2,0 0.3,0.1 0.3,0.3 l 0,0.5 c 0,0.2 -0.1,0.3 -0.3,0.3 l -6.7,0 c -0.2,0 -0.3,-0.1 -0.3,-0.3 l 0,-0.3 z" />
      <path
         style="fill:#504c4b"
         inkscape:connector-curvature="0"
         id="path7526"
         d="m -1435.6,2223.1 -1,0 c -0.1,0 -0.2,0 -0.4,0 -4.1,0 -8.5,-2.7 -8.6,-2.7 -3.7,-1.9 -7.6,-7 -7.6,-15.7 0,-11.3 9.4,-23.6 10.2,-23.6 0.8,0 10.3,12.3 10.3,23.6 0,4.5 -1.1,8.5 -3.2,11.6 0,0 -1.7,2.3 -1.4,4.4 0.1,0.9 0.6,1.6 1.4,2.2 l 0.3,0.2 z m -7.3,-41.8 c -0.7,0.3 -10,12.2 -10,23.4 0,8.5 3.9,13.6 7.5,15.4 0.1,0 4.6,2.8 8.8,2.7 l 0.2,0 c -0.6,-0.6 -1,-1.3 -1.1,-2.1 -0.3,-2.2 1.4,-4.5 1.5,-4.6 2.1,-3 3.1,-6.9 3.1,-11.4 -0.1,-11.2 -9.3,-23.2 -10,-23.4" />
      <path
         style="fill:#504c4b"
         inkscape:connector-curvature="0"
         id="path7528"
         d="m -1435.1,2223.2 -1.6,-0.1 c -0.1,0 -0.2,0 -0.3,0 -4.2,0 -8.6,-2.7 -8.6,-2.7 -3.7,-1.9 -7.7,-7.1 -7.7,-15.8 0,-11.4 9.6,-23.8 10.4,-23.8 1.1,0 10.4,12.8 10.4,23.8 0,4.5 -1.1,8.6 -3.2,11.7 0,0 -1.7,2.2 -1.4,4.2 0.1,0.8 0.5,1.5 1.3,2.1 l 0.7,0.6 z m -7.8,-41.7 c -1.1,0.8 -9.8,12.3 -9.8,23.2 0,8.4 3.8,13.4 7.4,15.3 0.5,0.3 4.5,2.7 8.3,2.7 0,0 0.1,0 0.1,0 -0.5,-0.6 -0.8,-1.2 -0.9,-2 -0.3,-2.2 1.3,-4.4 1.5,-4.7 2,-3 3.1,-6.9 3.1,-11.3 0.1,-10.7 -8.7,-22.4 -9.7,-23.2" />
      <path
         style="fill:#504c4b"
         inkscape:connector-curvature="0"
         id="path7530"
         d="m -1433.6,2223.1 0.4,-0.3 c 0.8,-0.6 1.2,-1.3 1.4,-2.2 0.3,-2.1 -1.4,-4.3 -1.4,-4.3 -2.1,-3.1 -3.2,-7.1 -3.2,-11.6 0,-11.3 9.4,-23.6 10.2,-23.6 0.8,0 10.3,12.3 10.3,23.6 0,8.6 -4,13.8 -7.6,15.7 0,0 -4.7,2.9 -8.9,2.7 l -1.2,0 z m 1,-0.4 c 0.1,0 0.2,0 0.4,0 4,0 8.4,-2.6 8.4,-2.7 3.6,-1.9 7.5,-6.9 7.5,-15.4 0,-11.1 -9.2,-23.1 -10,-23.4 -0.7,0.3 -10,12.2 -10,23.4 0,4.5 1.1,8.4 3.1,11.4 0.1,0.1 1.8,2.3 1.5,4.6 -0.1,0.8 -0.5,1.5 -1.1,2.1 l 0.2,0 z" />
      <path
         style="fill:#504c4b"
         inkscape:connector-curvature="0"
         id="path7532"
         d="m -1434.1,2223.2 0.8,-0.6 c 0.7,-0.6 1.2,-1.3 1.3,-2.1 0.3,-2 -1.4,-4.2 -1.4,-4.2 -2.1,-3.1 -3.2,-7.1 -3.2,-11.7 0,-11.4 9.6,-23.8 10.4,-23.8 1.1,0 10.4,12.8 10.4,23.8 0,8.7 -4,13.9 -7.7,15.8 0,0 -4.7,2.9 -9,2.7 l -1.6,0.1 z m 1.8,-0.6 c 0,0 0.1,0 0.1,0 4,0 8.3,-2.6 8.3,-2.6 3.6,-1.9 7.4,-6.9 7.4,-15.3 0,-10.7 -8.7,-22.4 -9.8,-23.2 -1.1,0.8 -9.8,12.3 -9.8,23.2 0,4.4 1.1,8.3 3.1,11.3 0.1,0.1 1.8,2.4 1.5,4.7 0,0.7 -0.3,1.3 -0.8,1.9" />
      <path
         style="fill:#504c4b"
         inkscape:connector-curvature="0"
         id="path7534"
         d="m -1434.6,2195.8 -0.1,-0.4 c -1.5,-4.2 -3.6,-7.8 -5.1,-10.1 l 0,-0.1 0,-0.1 c 2.2,-4 4.7,-7.2 5.2,-7.2 0.5,0 3,3.2 5.2,7.2 l 0,0.1 -0.1,0.2 c -1.4,2.2 -3.5,5.7 -4.9,9.8 l -0.2,0.6 z m -4.9,-10.6 c 1.5,2.2 3.4,5.7 4.9,9.7 1.5,-4 3.5,-7.5 4.9,-9.6 l 0,-0.1 c -2.4,-4.2 -4.6,-6.8 -4.9,-7 -0.3,0.1 -2.6,2.8 -4.9,7" />
      <path
         style="fill:#504c4b"
         inkscape:connector-curvature="0"
         id="path7536"
         d="m -1434.6,2196.3 -0.3,-0.8 c -1.5,-4.2 -3.6,-7.8 -5.1,-10.1 l -0.1,-0.2 0.1,-0.2 c 2.1,-3.7 4.7,-7.2 5.3,-7.2 0.7,0 3.3,3.6 5.4,7.3 l 0.1,0.2 -0.2,0.3 c -1.4,2.2 -3.5,5.7 -4.9,9.8 l -0.3,0.9 z m -4.7,-11.1 c 1.4,2.1 3.3,5.4 4.7,9.2 1.5,-3.9 3.4,-7.1 4.7,-9.2 -2.2,-4 -4.3,-6.4 -4.7,-6.8 -0.4,0.4 -2.5,2.8 -4.7,6.8" />
      <path
         style="fill:#504c4b"
         inkscape:connector-curvature="0"
         id="path7538"
         d="m -1436.7,2217.5 -0.1,-0.1 c -3.7,-1.7 -8,-6.8 -8,-15.9 0,-6.1 2.7,-12.2 4.9,-16.2 l 0.2,-0.4 0.1,0.2 c 1.5,2.3 3.6,5.9 5.1,10.2 1.2,3.4 1.8,6.5 1.8,9.4 0,4.5 -1.1,8.5 -3.2,11.6 0,0 -0.3,0.4 -0.6,1 l -0.2,0.2 z m -3,-32 0,0 c -2.2,4 -4.9,10.1 -4.9,16.1 0,8.8 4.2,13.9 7.8,15.6 l 0.1,-0.1 c 0.3,-0.6 0.6,-1 0.6,-1 2.1,-3 3.1,-6.9 3.1,-11.4 0,-2.8 -0.6,-5.9 -1.7,-9.2 -1.5,-4.3 -3.5,-7.8 -5,-10" />
      <path
         style="fill:#504c4b"
         inkscape:connector-curvature="0"
         id="path7540"
         d="m -1436.6,2217.7 -0.3,-0.1 c -3.8,-1.7 -8.1,-6.9 -8.1,-16 0,-6.1 2.7,-12.3 4.9,-16.3 l 0.4,-0.7 0.3,0.4 c 1.5,2.3 3.6,5.9 5.1,10.2 1.2,3.4 1.8,6.5 1.8,9.4 0,4.5 -1.1,8.6 -3.2,11.7 -0.1,0.1 -0.3,0.4 -0.6,0.9 l -0.3,0.5 z m -3.1,-31.9 c -2.2,4 -4.7,9.9 -4.7,15.8 0,8.6 4,13.6 7.5,15.3 0.3,-0.6 0.6,-1 0.6,-1 2,-3 3.1,-6.9 3.1,-11.3 0,-2.8 -0.6,-5.9 -1.7,-9.2 -1.4,-4 -3.3,-7.4 -4.8,-9.6" />
      <path
         style="fill:#504c4b"
         inkscape:connector-curvature="0"
         id="path7542"
         d="m -1432.5,2217.5 -0.2,-0.4 c -0.3,-0.6 -0.6,-0.9 -0.6,-0.9 -2.1,-3.1 -3.2,-7.1 -3.2,-11.6 0,-2.9 0.6,-6 1.8,-9.3 1.5,-4.3 3.6,-7.9 5.1,-10.2 l 0.1,-0.2 0.2,0.4 c 2.2,4 4.9,10.1 4.9,16.2 0,9 -4.3,14.2 -8,15.9 l -0.1,0.1 z m 3,-32 c -1.5,2.3 -3.5,5.8 -5,9.9 -1.2,3.3 -1.8,6.4 -1.8,9.3 0,4.5 1.1,8.4 3.1,11.4 0,0 0.3,0.4 0.6,1 l 0.1,0.1 c 3.6,-1.7 7.8,-6.8 7.8,-15.6 0.1,-6.1 -2.6,-12.1 -4.8,-16.1 l 0,0 z" />
      <path
         style="fill:#504c4b"
         inkscape:connector-curvature="0"
         id="path7544"
         d="m -1432.6,2217.7 -0.3,-0.5 c -0.3,-0.6 -0.6,-0.9 -0.6,-0.9 -2.1,-3.1 -3.2,-7.1 -3.2,-11.7 0,-2.9 0.6,-6 1.8,-9.4 1.5,-4.3 3.6,-8 5.1,-10.2 l 0.3,-0.4 0.4,0.7 c 2.2,4.1 4.9,10.2 4.9,16.3 0,9.1 -4.4,14.3 -8.1,16 l -0.3,0.1 z m -0.3,-1.7 c 0,0 0.3,0.4 0.6,1 3.5,-1.7 7.5,-6.8 7.5,-15.3 0,-5.9 -2.5,-11.8 -4.7,-15.8 -1.4,2.2 -3.4,5.6 -4.8,9.6 -1.2,3.3 -1.8,6.4 -1.8,9.2 0,4.4 1.1,8.3 3.2,11.3 l 0,0 z" />
      <path
         style="fill:#504c4b"
         inkscape:connector-curvature="0"
         id="path7546"
         d="m -1439,2204.2 c 0,2.7 2,4.9 4.4,4.9 2.5,0 4.4,-2.2 4.4,-4.9 0,-2.7 -2,-4.9 -4.4,-4.9 -2.5,0 -4.4,2.2 -4.4,4.9" />
      <path
         style="fill:#504c4b"
         inkscape:connector-curvature="0"
         id="path7548"
         d="m -1434.6,2209.2 c -2.5,0 -4.6,-2.3 -4.6,-5.1 0,-2.8 2.1,-5.1 4.6,-5.1 2.5,0 4.6,2.3 4.6,5.1 0,2.9 -2.1,5.1 -4.6,5.1 m 0,-9.8 c -2.4,0 -4.3,2.1 -4.3,4.7 0,2.6 1.9,4.7 4.3,4.7 2.4,0 4.3,-2.1 4.3,-4.7 0,-2.5 -1.9,-4.7 -4.3,-4.7" />
      <path
         style="fill:#504c4b"
         inkscape:connector-curvature="0"
         id="path7550"
         d="m -1428.4,2222.3 c -0.9,0.3 -1.9,0.5 -2.9,0.6 0,0 -4.2,0.6 -7.5,-0.1 -0.7,-0.1 -1.4,-0.3 -2.1,-0.5 l 0,-0.1 c -0.1,-0.5 -0.2,-1 -0.3,-1.5 0,0 -1,-5.2 -3.2,-10.4 -2.2,-5.3 0,-12.9 0,-12.9 0,0 -1.3,14.4 9.6,14.4 l 0.3,0 c 10.8,0 9.6,-14.4 9.6,-14.4 0,0 2.2,7.7 0,12.9 -2.2,5.3 -3.2,10.4 -3.2,10.4 0,0.4 -0.1,0.9 -0.3,1.6 l 0,0 z" />
      <path
         style="fill:#504c4b"
         inkscape:connector-curvature="0"
         id="path7552"
         d="m -1434.9,2223.3 c -1.5,0 -2.8,-0.1 -3.9,-0.3 -0.7,-0.1 -1.4,-0.3 -2.1,-0.5 l -0.1,0 0,-0.2 c -0.1,-0.5 -0.2,-1 -0.3,-1.5 0,-0.1 -1,-5.2 -3.2,-10.4 -2.2,-5.3 0,-13 0,-13 l 0.3,0.1 c 0,0.1 -0.6,7.6 3.1,11.7 1.6,1.7 3.7,2.6 6.3,2.6 l 0.3,0 c 2.6,0 4.7,-0.9 6.3,-2.6 3.7,-4.1 3.1,-11.6 3.1,-11.7 l 0.3,-0.1 c 0,0.1 2.2,7.8 0,13 -2.1,5.2 -3.2,10.4 -3.2,10.4 -0.1,0.5 -0.2,1 -0.3,1.6 l 0,0.2 -0.1,0 c -1,0.3 -2,0.5 -2.9,0.6 0,-0.2 -1.6,0.1 -3.6,0.1" />
      <path
         style="fill:#504c4b"
         inkscape:connector-curvature="0"
         id="path7554"
         d="m -1440.7,2222.1 c 0.7,0.2 1.3,0.4 2,0.5 1.1,0.2 2.3,0.3 3.8,0.3 2,0 3.6,-0.2 3.7,-0.2 0.9,-0.1 1.8,-0.3 2.8,-0.6 0.1,-0.5 0.2,-1 0.3,-1.5 0,-0.1 1,-5.2 3.2,-10.5 1.5,-3.8 0.8,-8.8 0.3,-11.3 0,2.5 -0.5,7.3 -3.2,10.3 -1.6,1.8 -3.8,2.7 -6.5,2.7 l -0.3,0 c -2.7,0 -4.9,-0.9 -6.5,-2.7 -2.7,-3 -3.2,-7.8 -3.2,-10.3 -0.5,2.5 -1.2,7.5 0.3,11.3 2.2,5.2 3.2,10.4 3.2,10.5 -0.1,0.5 0,1 0.1,1.5" />
    </g>
  </g>
</svg>
