<?xml version="1.0" standalone="no"?>
<!DOCTYPE svg PUBLIC "-//W3C//DTD SVG 20010904//EN"
 "http://www.w3.org/TR/2001/REC-SVG-20010904/DTD/svg10.dtd">
<svg version="1.0" xmlns="http://www.w3.org/2000/svg"
 width="1161.000000pt" height="1161.000000pt" viewBox="0 0 1161.000000 1161.000000"
 preserveAspectRatio="xMidYMid meet">
<metadata>
Created by potrace 1.11, written by Peter Selinger 2001-2013
</metadata>
<g transform="translate(0.000000,1161.000000) scale(0.100000,-0.100000)"
fill="#000000" stroke="none">
<path d="M5740 10877 c-61 -59 -114 -118 -178 -197 -29 -36 -58 -72 -65 -80
-87 -107 -336 -457 -462 -650 -37 -58 -84 -130 -104 -160 -19 -30 -91 -147
-158 -259 -118 -196 -123 -205 -108 -228 93 -144 39 -75 -111 142 -297 430
-556 748 -635 777 -18 7 -47 -13 -119 -82 -60 -59 -260 -309 -401 -502 -193
-266 -639 -975 -639 -1017 0 -6 -4 -11 -10 -11 -5 0 -10 -4 -10 -8 0 -4 -39
-80 -86 -167 -79 -147 -304 -597 -304 -609 0 -3 -18 -44 -41 -93 -23 -48 -68
-153 -101 -233 -33 -80 -66 -158 -73 -175 -44 -102 -178 -486 -239 -685 -25
-82 -112 -404 -120 -445 -3 -11 -14 -65 -26 -120 -12 -55 -24 -111 -26 -125
-10 -53 -34 -187 -39 -217 -12 -77 -14 -91 -20 -143 -3 -30 -8 -62 -10 -70 -2
-8 -7 -48 -10 -89 -4 -41 -8 -82 -10 -92 -22 -112 -21 -741 0 -964 17 -172 33
-304 45 -370 6 -27 12 -68 15 -90 19 -136 91 -432 147 -610 18 -55 33 -102 33
-105 1 -3 7 -18 13 -33 7 -16 12 -31 12 -33 0 -20 126 -314 183 -429 177 -353
379 -637 637 -895 191 -191 384 -341 575 -445 39 -21 88 -49 109 -63 92 -57
384 -197 611 -292 11 -4 36 -15 55 -23 135 -58 586 -189 730 -211 19 -3 69
-12 110 -20 41 -8 93 -17 115 -20 23 -4 50 -8 62 -10 12 -3 54 -7 95 -11 40
-3 80 -8 88 -10 81 -22 803 -21 975 0 17 2 66 7 110 10 44 4 87 8 95 10 9 2
46 6 82 9 37 4 75 8 85 10 10 2 43 7 73 11 348 44 822 195 1220 388 80 39 147
71 150 71 3 1 21 11 41 24 20 12 39 22 42 22 4 0 39 19 79 43 40 24 80 46 88
50 8 4 33 18 55 32 22 14 47 28 55 32 28 12 184 122 255 178 150 120 349 318
450 449 17 21 35 44 42 51 23 24 161 223 215 311 76 124 167 297 223 424 25
58 50 114 55 125 57 119 194 560 224 715 2 14 9 45 14 70 6 25 13 63 16 84 4
21 8 48 11 60 8 36 34 210 50 336 26 214 27 1032 0 1230 -1 14 -6 49 -10 79
-4 30 -8 61 -10 70 -1 9 -6 39 -9 66 -9 69 -15 99 -31 180 -8 39 -16 81 -18
95 -11 59 -39 188 -49 225 -5 22 -12 51 -15 65 -33 182 -270 911 -364 1117
-10 24 -19 45 -19 47 0 6 -83 202 -110 261 -10 22 -29 65 -43 95 -62 138 -233
490 -275 565 -6 11 -50 92 -98 180 -356 654 -828 1350 -1115 1641 -44 45 -89
84 -101 87 -62 17 -416 -416 -727 -890 -52 -79 -96 -143 -98 -143 -5 0 2 13
37 65 15 22 29 47 33 56 5 15 -79 171 -184 340 -18 30 -39 64 -46 75 -101 165
-358 550 -420 629 -4 6 -35 46 -67 90 -185 250 -389 475 -430 475 -12 0 -42
-20 -66 -43z m-990 -1707 c6 -11 8 -20 6 -20 -3 0 -10 9 -16 20 -6 11 -8 20
-6 20 3 0 10 -9 16 -20z m2103 -35 c-13 -25 -29 -48 -35 -51 -5 -4 -3 5 6 20
9 14 23 37 31 51 26 43 25 27 -2 -20z m-2053 -45 c6 -11 8 -20 6 -20 -3 0 -10
9 -16 20 -6 11 -8 20 -6 20 3 0 10 -9 16 -20z m2000 -40 c-6 -11 -13 -20 -16
-20 -2 0 0 9 6 20 6 11 13 20 16 20 2 0 0 -9 -6 -20z m-46 -75 c-9 -14 -18
-25 -21 -25 -5 0 5 18 20 38 17 22 18 13 1 -13z m-74 -125 c-6 -11 -13 -20
-16 -20 -2 0 0 9 6 20 6 11 13 20 16 20 2 0 0 -9 -6 -20z m-70 -120 c-6 -11
-13 -20 -16 -20 -2 0 0 9 6 20 6 11 13 20 16 20 2 0 0 -9 -6 -20z m-59 -103
c-10 -9 -11 -8 -5 6 3 10 9 15 12 12 3 -3 0 -11 -7 -18z m-1447 -53 c3 -8 2
-12 -4 -9 -6 3 -10 10 -10 16 0 14 7 11 14 -7z m1416 -4 c-6 -11 -13 -20 -16
-20 -2 0 0 9 6 20 6 11 13 20 16 20 2 0 0 -9 -6 -20z m-1370 -80 c6 -11 8 -20
6 -20 -3 0 -10 9 -16 20 -6 11 -8 20 -6 20 3 0 10 -9 16 -20z m1320 -10 c-6
-11 -13 -20 -16 -20 -2 0 0 9 6 20 6 11 13 20 16 20 2 0 0 -9 -6 -20z m-37
-65 c-3 -9 -8 -14 -10 -11 -3 3 -2 9 2 15 9 16 15 13 8 -4z m-1235 -20 c-3 -3
-9 2 -12 12 -6 14 -5 15 5 6 7 -7 10 -15 7 -18z m42 -75 c6 -11 8 -20 6 -20
-3 0 -10 9 -16 20 -6 11 -8 20 -6 20 3 0 10 -9 16 -20z m1150 12 c0 -5 -7 -17
-15 -28 -14 -18 -14 -17 -4 9 12 27 19 34 19 19z m-1126 -58 c3 -8 2 -12 -4
-9 -6 3 -10 10 -10 16 0 14 7 11 14 -7z m1077 -37 c-10 -9 -11 -8 -5 6 3 10 9
15 12 12 3 -3 0 -11 -7 -18z m-1057 -3 c3 -8 2 -12 -4 -9 -6 3 -10 10 -10 16
0 14 7 11 14 -7z m1037 -37 c-10 -9 -11 -8 -5 6 3 10 9 15 12 12 3 -3 0 -11
-7 -18z m-1003 -32 c-3 -3 -9 2 -12 12 -6 14 -5 15 5 6 7 -7 10 -15 7 -18z
m16 -31 c3 -8 2 -12 -4 -9 -6 3 -10 10 -10 16 0 14 7 11 14 -7z m947 -17 c-10
-9 -11 -8 -5 6 3 10 9 15 12 12 3 -3 0 -11 -7 -18z m-923 -32 c-3 -3 -9 2 -12
12 -6 14 -5 15 5 6 7 -7 10 -15 7 -18z m893 -28 c-10 -9 -11 -8 -5 6 3 10 9
15 12 12 3 -3 0 -11 -7 -18z m-877 -3 c3 -8 2 -12 -4 -9 -6 3 -10 10 -10 16 0
14 7 11 14 -7z m847 -57 c-10 -9 -11 -8 -5 6 3 10 9 15 12 12 3 -3 0 -11 -7
-18z m-801 -41 c0 -12 -5 -7 -19 24 -11 24 -11 24 3 6 9 -11 16 -24 16 -30z
m781 -3 c-12 -20 -14 -14 -5 12 4 9 9 14 11 11 3 -2 0 -13 -6 -23z m-763 -38
c-3 -3 -9 2 -12 12 -6 14 -5 15 5 6 7 -7 10 -15 7 -18z m745 0 c-3 -9 -8 -14
-10 -11 -3 3 -2 9 2 15 9 16 15 13 8 -4z m-725 -40 c-3 -3 -9 2 -12 12 -6 14
-5 15 5 6 7 -7 10 -15 7 -18z m702 -13 c0 -5 -7 -17 -15 -28 -14 -18 -14 -17
-4 9 12 27 19 34 19 19z m-670 -43 c0 -6 -4 -7 -10 -4 -5 3 -10 11 -10 16 0 6
5 7 10 4 6 -3 10 -11 10 -16z m20 -54 c0 -5 -5 -3 -10 5 -5 8 -10 20 -10 25 0
6 5 3 10 -5 5 -8 10 -19 10 -25z m613 20 c-3 -9 -8 -14 -10 -11 -3 3 -2 9 2
15 9 16 15 13 8 -4z m-593 -70 c0 -5 -5 -3 -10 5 -5 8 -10 20 -10 25 0 6 5 3
10 -5 5 -8 10 -19 10 -25z m556 -12 c-8 -15 -15 -25 -16 -21 0 12 23 58 27 54
3 -2 -2 -17 -11 -33z m-538 -28 c-3 -3 -9 2 -12 12 -6 14 -5 15 5 6 7 -7 10
-15 7 -18z m515 -25 c-3 -12 -8 -19 -11 -16 -5 6 5 36 12 36 2 0 2 -9 -1 -20z
m-483 -45 c0 -5 -5 -3 -10 5 -5 8 -10 20 -10 25 0 6 5 3 10 -5 5 -8 10 -19 10
-25z m463 0 c-3 -9 -8 -14 -10 -11 -3 3 -2 9 2 15 9 16 15 13 8 -4z m-27 -62
c-8 -15 -15 -25 -16 -21 0 12 23 58 27 54 3 -2 -2 -17 -11 -33z m-406 -8 c0
-5 -5 -3 -10 5 -5 8 -10 20 -10 25 0 6 5 3 10 -5 5 -8 10 -19 10 -25z m40
-100 c0 -5 -5 -3 -10 5 -5 8 -10 20 -10 25 0 6 5 3 10 -5 5 -8 10 -19 10 -25z
m311 -22 c-12 -20 -14 -14 -5 12 4 9 9 14 11 11 3 -2 0 -13 -6 -23z m-40 -100
c-12 -20 -14 -14 -5 12 4 9 9 14 11 11 3 -2 0 -13 -6 -23z m-110 -267 c5 3 9
0 9 -6 0 -15 -23 -7 -26 8 -1 7 0 8 3 2 2 -5 9 -8 14 -4z"/>
</g>
</svg>
